<svg width="1006" height="43" viewBox="0 0 1006 43" fill="none" xmlns="http://www.w3.org/2000/svg">
<g clip-path="url(#clip0_41_114)">
<path d="M493.584 42.9993C493.354 42.9993 493.124 42.9993 492.665 42.9993C491.287 42.9993 478.195 42.7681 469.467 26.8165C466.481 21.4993 462.577 16.6445 459.131 14.1015L458.672 13.6391C454.308 9.94019 448.337 9.01545 443.054 10.6337C437.771 12.252 434.096 16.1821 432.718 21.4993C432.718 21.9617 432.489 22.4241 432.489 22.6552C431.8 26.3542 432.718 30.2843 435.015 33.5208C438.46 38.1445 443.054 40.2251 447.647 39.0692C451.782 38.1445 454.997 34.6767 455.686 30.5155C456.146 28.4348 455.457 26.123 454.079 24.2735C452.011 21.4993 449.255 20.3434 446.729 20.8058C444.432 21.2681 442.595 23.3488 442.135 25.6606C441.676 28.2036 443.284 30.7466 445.81 31.209L445.121 34.6767C440.757 33.752 437.771 29.3595 438.69 24.9671C439.379 21.037 442.365 18.0316 446.04 17.1069C450.174 16.1821 454.308 18.0316 457.064 21.9617C458.902 24.7359 459.821 27.9724 459.131 30.9778C457.983 36.5262 453.849 41.1499 448.337 42.3058C442.365 43.6929 436.393 41.1499 432.029 35.3703C429.043 31.209 427.895 26.3542 428.814 21.7305C428.814 21.2681 429.043 20.8058 429.043 20.3434C430.651 13.8703 435.474 9.01545 441.676 6.93481C448.337 4.85416 455.457 6.01008 460.739 10.4026L461.199 10.8649C465.103 13.8703 469.237 18.9563 472.453 24.7359C480.492 39.5316 492.435 39.0692 492.435 39.0692C494.502 39.3004 496.34 38.6069 497.947 37.2198C499.555 35.8327 500.474 33.9832 500.704 31.6714C500.933 28.4348 498.637 25.4294 495.421 25.1982C494.273 25.1982 493.124 25.6606 492.205 26.3542C490.827 27.7413 490.368 29.1284 490.827 30.5155C491.287 31.6714 492.205 32.5961 493.584 32.5961L493.354 36.295C490.827 36.0638 488.531 34.4456 487.612 31.9025C486.693 29.1284 487.382 26.123 489.679 23.8112C491.287 22.1929 493.584 21.2681 495.651 21.4993C500.704 21.9617 504.608 26.5853 504.149 31.9025C503.919 34.9079 502.541 37.9133 500.244 39.7628C498.866 42.0746 496.34 42.9993 493.584 42.9993Z" fill="#1A1A1A"/>
<path d="M512.647 42.999C509.89 42.999 507.364 42.0743 505.297 40.2248C503 38.1441 501.622 35.37 501.392 32.3646C500.933 27.0474 504.837 22.4237 509.89 21.9614C511.958 21.7302 514.254 22.6549 515.862 24.2732C518.159 26.585 519.078 29.5904 517.929 32.3646C517.01 34.9076 514.714 36.5259 512.187 36.7571L511.957 33.0581C513.106 33.0581 514.254 32.1334 514.714 30.9775C515.173 29.5904 514.714 27.9721 513.336 26.8162C512.417 25.8915 511.268 25.4291 510.12 25.6603C506.905 25.8915 504.608 28.8968 504.837 32.1334C505.067 34.214 505.986 36.2947 507.594 37.6818C509.201 39.0689 511.039 39.7624 513.106 39.5312C513.565 39.5312 525.049 39.7624 533.088 25.1979C536.304 19.4183 540.438 14.3323 544.342 11.3269L544.802 10.8646C550.084 6.47211 557.205 5.08501 563.865 7.39684C570.296 9.47748 574.89 14.3323 576.498 20.8054C576.727 21.2678 576.727 21.7302 576.727 22.1925C577.646 27.0474 576.498 31.9022 573.512 35.8323C569.148 41.6119 563.176 44.1549 557.205 42.7678C551.692 41.3807 547.558 36.9882 546.41 31.4398C545.721 28.2033 546.639 24.9667 548.477 22.4237C551.463 18.4936 555.597 16.6441 559.501 17.5689C563.176 18.4936 566.162 21.499 566.851 25.4291C567.77 29.8216 564.784 34.214 560.42 35.1388L559.731 31.671C562.257 31.2087 563.865 28.6657 563.406 26.1226C562.947 23.5796 561.109 21.7302 558.812 21.2678C556.056 20.5743 553.53 21.9614 551.463 24.7355C550.084 26.585 549.625 28.8968 549.855 30.9775C550.544 35.1388 553.759 38.6065 557.894 39.5312C562.487 40.6872 567.081 38.6065 570.526 33.9829C573.052 30.7463 573.971 26.8162 573.052 23.1173C573.052 22.6549 572.823 22.1925 572.823 21.9614C571.445 16.6441 567.77 12.714 562.487 11.0958C556.975 9.2463 551.233 10.4022 546.869 14.1011L547.099 13.87C543.653 16.6442 539.749 21.499 536.763 26.8162C528.035 42.7678 514.943 43.2302 513.565 42.999C513.106 42.999 512.876 42.999 512.647 42.999Z" fill="#1A1A1A"/>
<path d="M503.23 22.8864C500.474 22.8864 498.177 21.0369 497.488 18.0315C496.11 11.3272 501.392 2.77348 501.622 2.5423L503.23 0.230469L504.838 2.5423C505.067 3.00466 510.35 11.3272 508.972 18.0315C508.283 20.8057 505.986 22.8864 503.23 22.8864ZM500.933 17.338C501.163 18.7251 502.311 19.1875 503 19.1875C503.689 19.1875 504.838 18.7251 505.067 17.338C505.756 14.1014 504.148 9.94015 503 7.39714C501.852 9.94015 500.244 14.1014 500.933 17.338Z" fill="#1A1A1A"/>
<path d="M990.841 27.5107C990.152 27.5107 989.463 27.5107 988.544 27.2795C985.788 26.8171 983.721 24.2741 983.721 21.4999C983.721 18.4945 985.558 16.1827 988.544 15.7204C995.205 14.3333 1003.47 19.8816 1003.7 20.1128L1006 21.7311L1003.7 23.3494C1003.47 23.1182 996.812 27.5107 990.841 27.5107ZM989.233 19.1881C987.855 19.4193 987.396 20.5752 987.396 21.4999C987.396 22.4247 987.855 23.5806 989.233 23.8117C992.219 24.5053 996.353 22.887 999.109 21.4999C996.353 20.1128 992.219 18.4945 989.233 19.1881Z" fill="#1A1A1A"/>
<path d="M977.06 23.1181C976.831 23.1181 976.831 23.1181 976.601 23.1181C975.453 23.1181 968.792 22.6558 964.428 14.5644C963.05 12.0214 961.212 9.70953 959.605 8.55362L959.375 8.32244C957.538 6.70416 954.781 6.24179 952.485 6.93534C950.188 7.62889 948.58 9.47835 947.891 11.7902C947.891 12.0214 947.891 12.2525 947.661 12.2525C947.432 13.8708 947.661 15.4891 948.81 16.8762C950.188 18.9568 952.255 19.6504 954.092 19.4192C955.7 18.9568 957.078 17.5697 957.308 15.9515C957.537 15.0267 957.308 14.3332 956.619 13.6396C955.93 12.4837 954.781 12.0214 953.863 12.2525C952.944 12.4837 952.485 13.1773 952.255 14.102C952.025 14.7956 952.485 15.7203 953.403 15.7203L952.714 19.188C949.958 18.7257 948.35 15.9515 948.81 13.4085C949.269 11.0966 950.877 9.24717 953.174 8.7848C955.47 8.32244 957.997 9.24717 959.605 11.559C960.753 13.1773 961.212 15.0267 960.753 16.8762C960.064 20.1128 957.767 22.4246 954.781 23.1181C951.566 23.8117 948.121 22.4246 945.824 19.4192C944.216 17.3386 943.527 14.5644 943.986 11.7902C943.986 11.559 943.986 11.3278 944.216 11.0966C945.135 7.62889 947.661 4.8547 951.106 3.92996C954.781 2.77405 958.456 3.4676 961.442 5.77943L961.672 6.01061C963.739 7.62889 965.806 10.1719 967.414 13.1773C969.94 17.8009 973.156 19.188 974.993 19.6504C974.304 19.188 973.615 18.4945 973.385 17.5697C972.696 15.9515 973.156 14.102 974.764 12.7149C975.682 11.7902 977.06 11.3278 978.438 11.3278C981.424 11.559 983.721 14.3332 983.491 17.3386C983.262 19.188 982.573 20.8063 981.195 21.9622C980.046 22.6558 978.668 23.1181 977.06 23.1181ZM978.209 14.5644C977.979 14.5644 977.52 14.7956 977.52 15.0267C977.06 15.4891 977.06 15.7203 977.06 16.1827C977.06 16.4138 977.29 16.645 977.52 16.645L977.29 19.6504C977.979 19.6504 978.668 19.4192 979.127 18.9568C979.816 18.4945 980.046 17.8009 980.276 16.8762C980.046 15.7203 979.357 14.7956 978.209 14.5644Z" fill="#1A1A1A"/>
<path d="M954.552 39.7631C953.403 39.7631 952.255 39.5319 951.106 39.3007C947.661 38.1448 945.135 35.3706 944.216 32.1341C944.216 31.9029 943.986 31.6717 943.986 31.4405C943.527 28.8975 944.216 26.1233 945.824 24.0427C948.121 20.8061 951.566 19.419 954.781 20.3437C957.767 21.0373 960.294 23.5803 960.753 26.5857C960.983 28.4351 960.753 30.2846 959.605 31.9029C957.997 34.2147 955.47 35.1394 953.174 34.6771C950.877 34.2147 949.269 32.3652 948.81 30.0534C948.35 27.2792 949.958 24.7362 952.714 24.2738L953.403 27.7416C952.714 27.9728 952.255 28.6663 952.255 29.3599C952.485 30.2846 953.174 30.9781 953.863 31.2093C954.781 31.4405 955.7 30.9781 956.619 29.8222C957.078 29.1287 957.308 28.2039 957.308 27.5104C957.078 25.6609 955.7 24.505 954.092 24.0427C952.255 23.5803 950.188 24.505 948.81 26.5857C947.661 27.9728 947.432 29.591 947.661 31.2093C947.661 31.4405 947.661 31.6717 947.891 31.6717C948.58 33.9835 950.188 35.6018 952.485 36.5265C954.781 37.2201 957.538 36.7577 959.375 35.1394L959.605 34.9083C961.212 33.5212 963.05 31.2093 964.428 28.8975C969.022 20.5749 975.682 20.3437 976.601 20.3437C978.209 20.1126 980.046 20.8061 981.195 21.962C982.573 23.1179 983.262 24.7362 983.491 26.5857C983.721 29.591 981.424 32.3652 978.438 32.5964C977.06 32.8276 975.682 32.1341 974.764 31.2093C973.385 29.8222 972.926 27.9728 973.385 26.3545C973.615 25.4298 974.304 24.7362 974.993 24.2738C973.156 24.7362 969.94 26.1233 967.414 30.747C965.806 33.7523 963.509 36.2953 961.672 37.9136L961.442 38.1448C959.605 38.8384 957.078 39.7631 954.552 39.7631ZM977.29 23.1179L977.52 26.1233C977.29 26.1233 977.06 26.3545 977.06 26.5857C976.831 26.8169 977.06 27.2792 977.52 27.7416C977.749 27.9728 978.209 28.2039 978.438 28.2039C979.587 28.2039 980.276 27.048 980.276 25.8921C980.276 24.9674 979.816 24.2738 979.127 23.8115C978.438 23.5803 977.749 23.3491 977.29 23.1179Z" fill="#1A1A1A"/>
<path d="M952.485 19.6504H575.579V23.3493H952.485V19.6504Z" fill="#1A1A1A"/>
<path d="M15.3886 27.5099C9.18721 27.5099 2.52648 23.1175 2.2968 22.8863L0 21.4992L2.2968 19.8809C2.75616 19.6497 11.0247 14.3325 17.4557 15.4884C20.4416 16.182 22.279 18.4938 22.279 21.4992C22.279 24.5046 20.4416 26.8164 17.4557 27.2788C16.7667 27.2788 16.0776 27.5099 15.3886 27.5099ZM6.89041 21.4992C9.64657 22.8863 13.7808 24.2734 16.7667 23.811C18.1447 23.5798 18.6041 22.4239 18.6041 21.4992C18.6041 20.5745 18.1447 19.4185 16.7667 19.1874C13.7808 18.4938 9.87626 20.1121 6.89041 21.4992Z" fill="#1A1A1A"/>
<path d="M28.9401 23.1169C27.3323 23.1169 25.9542 22.6545 24.8058 21.4986C23.4277 20.3427 22.7387 18.7244 22.509 16.875C22.2793 14.1008 24.5761 11.3266 27.562 11.0954C28.9401 11.0954 30.3181 11.5578 31.2369 12.4825C32.6149 13.8696 33.0743 15.719 32.6149 17.3373C32.3853 18.2621 31.6962 18.9556 31.0072 19.418C32.8446 18.9556 36.0601 17.5685 38.5866 12.9449C40.1944 9.93948 42.4912 7.39647 44.3286 5.77819L44.5583 5.547C47.5442 3.23518 51.219 2.54163 54.8939 3.69754C58.3391 4.85346 60.8656 7.62765 61.7843 10.8642C61.7843 11.0954 62.014 11.3266 62.014 11.5578C62.4734 14.1008 61.7843 16.875 60.1766 19.1868C57.8798 22.4233 54.4346 23.8104 51.219 22.8857C48.2332 22.1922 45.7067 19.6492 45.2474 16.6438C45.0177 14.7943 45.2474 12.9449 46.3958 11.3266C48.0035 9.24593 50.53 8.09002 52.8268 8.78356C55.1236 9.24593 56.7314 11.0954 57.1907 13.4072C57.6501 16.1814 56.0423 18.7244 53.2862 19.1868L52.5971 15.719C53.2862 15.4879 53.7455 14.7943 53.7455 14.1008C53.5159 13.176 52.8268 12.4825 52.1378 12.2513C51.219 12.0201 50.3003 12.4825 49.3816 13.6384C48.9222 14.332 48.6926 15.2567 48.6926 15.9502C48.9222 17.7997 50.3003 18.9556 51.9081 19.418C53.7455 19.8803 55.8127 18.9556 57.1907 16.875C58.3391 15.4879 58.5688 13.8696 58.3391 12.2513C58.3391 12.0201 58.3391 11.7889 58.1095 11.7889C57.4204 9.47711 55.8127 7.85883 53.5158 6.9341C51.219 6.24055 48.4629 6.70292 46.6254 8.3212L46.3958 8.55238C44.788 9.93948 42.9506 12.2513 41.5725 14.5631C36.9789 22.8857 30.3181 23.1169 29.3994 23.1169C29.1697 23.1169 29.1697 23.1169 28.9401 23.1169ZM28.0213 14.5631C26.8729 14.5631 25.9542 15.719 26.1839 16.875C26.1839 17.7997 26.6432 18.4932 27.3323 18.9556C27.7916 19.418 28.4807 19.6492 29.1697 19.6492L28.9401 16.6438C29.1697 16.6438 29.3994 16.4126 29.3994 16.1814C29.6291 15.9502 29.3994 15.4879 28.9401 15.0255C28.4807 14.7943 28.251 14.5631 28.0213 14.5631Z" fill="#1A1A1A"/>
<path d="M51.4487 39.7619C48.9222 39.7619 46.6254 38.8371 44.5583 37.2189L44.3286 36.9877C42.2615 35.3694 40.1944 32.8264 38.5866 29.821C36.0601 25.1973 32.8446 23.8103 31.0072 23.3479C31.6962 23.8103 32.3853 24.5038 32.6149 25.4285C33.304 27.0468 32.8446 28.8963 31.2369 30.2834C30.3181 31.2081 28.9401 31.6705 27.562 31.6705C24.5761 31.4393 22.2793 28.6651 22.509 25.6597C22.7387 23.8103 23.4277 22.192 24.8058 21.0361C26.1839 19.8801 27.7916 19.4178 29.3994 19.4178C30.5478 19.4178 37.2085 19.8801 41.5725 27.9715C42.9506 30.5146 44.788 32.8264 46.3958 33.9823L46.6254 34.2135C48.4629 35.8318 51.219 36.2941 53.5158 35.6006C55.8127 34.907 57.4204 33.0576 58.1095 30.7457C58.1095 30.5146 58.1095 30.2834 58.3391 30.2834C58.5688 28.6651 58.3391 27.0468 57.1907 25.6597C55.8127 23.5791 53.7455 22.8855 51.9081 23.1167C50.3003 23.5791 48.9222 24.9662 48.6926 26.5844C48.4629 27.5092 48.6926 28.2027 49.3816 28.8963C50.3003 30.0522 51.219 30.5146 52.1378 30.2834C53.0565 30.0522 53.5159 29.3586 53.7455 28.4339C53.9752 27.7404 53.5159 26.8156 52.5971 26.8156L53.2862 23.3479C56.0423 23.8103 57.6501 26.5844 57.1907 29.1275C56.7314 31.4393 55.1236 33.2887 52.8268 33.7511C50.53 34.2135 48.0035 33.2887 46.3958 30.9769C45.2474 29.3586 44.788 27.5092 45.2474 25.6597C45.9364 22.4232 48.2332 20.1113 51.219 19.4178C54.4346 18.7242 57.8798 20.1113 60.1766 23.1167C61.7843 25.1973 62.4734 27.9715 62.014 30.7457C62.014 30.9769 62.014 31.2081 61.7843 31.4393C60.8656 34.907 58.3391 37.6812 54.8939 38.606C53.7455 39.5307 52.5971 39.7619 51.4487 39.7619ZM28.9401 23.1167C28.251 23.1167 27.562 23.3479 27.1026 23.8103C26.4136 24.2726 26.1839 24.9662 25.9542 25.8909C25.9542 27.0468 26.6432 27.9715 27.7917 28.2027C28.0213 28.2027 28.4807 28.2027 28.7104 27.7404C29.1697 27.278 29.1697 27.0468 29.1697 26.5844C29.1697 26.3533 28.9401 26.1221 28.7104 26.1221L28.9401 23.1167Z" fill="#1A1A1A"/>
<path d="M430.421 19.6484H53.5156V23.3474H430.421V19.6484Z" fill="#1A1A1A"/>
</g>
<defs>
<clipPath id="clip0_41_114">
<rect width="1006" height="43" fill="white"/>
</clipPath>
</defs>
</svg>
