<svg width="196" height="24" viewBox="0 0 196 24" fill="none" xmlns="http://www.w3.org/2000/svg">
<path d="M22.7811 8.99968C22.6649 8.64091 22.4448 8.32469 22.1487 8.09105C21.8527 7.85741 21.494 7.71686 21.118 7.68718L15.8127 7.25874L13.7652 2.3078C13.6213 1.95789 13.3767 1.65863 13.0624 1.44804C12.748 1.23744 12.3782 1.125 11.9999 1.125C11.6215 1.125 11.2517 1.23744 10.9374 1.44804C10.6231 1.65863 10.3785 1.95789 10.2346 2.3078L8.18895 7.25968L2.88363 7.68718C2.50697 7.71824 2.14788 7.85994 1.85151 8.09448C1.55514 8.32901 1.33469 8.64591 1.21789 9.00535C1.10108 9.36479 1.09311 9.75074 1.195 10.1147C1.29688 10.4786 1.50406 10.8044 1.79051 11.0509L5.83863 14.5422L4.60113 19.7641C4.51088 20.1322 4.53223 20.5189 4.66247 20.8749C4.79271 21.2309 5.02595 21.5401 5.33249 21.7631C5.63903 21.9861 6.005 22.1128 6.3838 22.1271C6.76259 22.1414 7.13708 22.0427 7.45957 21.8434L11.9999 19.0487L16.5402 21.8434C16.8626 22.0413 17.2365 22.1391 17.6145 22.1244C17.9925 22.1097 18.3576 21.9832 18.6637 21.7608C18.9697 21.5385 19.2029 21.2303 19.3338 20.8754C19.4646 20.5204 19.4872 20.1347 19.3986 19.7669L18.1611 14.545L22.2093 11.0537C22.4974 10.8066 22.7056 10.4794 22.8074 10.1136C22.9093 9.74792 22.9001 9.36019 22.7811 8.99968ZM16.1746 13.2841C16.0185 13.4186 15.9023 13.5935 15.8389 13.7896C15.7754 13.9857 15.767 14.1954 15.8146 14.3959L17.023 19.4997L12.5896 16.7734C12.4122 16.6643 12.2081 16.6065 11.9999 16.6065C11.7917 16.6065 11.5875 16.6643 11.4102 16.7734L6.97676 19.4997L8.1852 14.3997C8.23279 14.1992 8.22439 13.9894 8.16091 13.7933C8.09742 13.5972 7.98129 13.4224 7.8252 13.2878L3.86238 9.86593L9.05613 9.44687C9.26282 9.43026 9.46089 9.35686 9.62848 9.23476C9.79607 9.11267 9.92666 8.94663 10.0058 8.75499L11.9999 3.92687L13.9939 8.75499C14.0731 8.94663 14.2037 9.11267 14.3713 9.23476C14.5389 9.35686 14.7369 9.43026 14.9436 9.44687L20.1374 9.86593L16.1746 13.2841Z" fill="white"/>
<path d="M65.7811 8.99968C65.6649 8.64091 65.4448 8.32469 65.1487 8.09105C64.8527 7.85741 64.494 7.71686 64.118 7.68718L58.8127 7.25874L56.7652 2.3078C56.6213 1.95789 56.3767 1.65863 56.0624 1.44804C55.748 1.23744 55.3782 1.125 54.9999 1.125C54.6215 1.125 54.2517 1.23744 53.9374 1.44804C53.6231 1.65863 53.3785 1.95789 53.2346 2.3078L51.1889 7.25968L45.8836 7.68718C45.507 7.71824 45.1479 7.85994 44.8515 8.09448C44.5551 8.32901 44.3347 8.64591 44.2179 9.00535C44.1011 9.36479 44.0931 9.75074 44.195 10.1147C44.2969 10.4786 44.5041 10.8044 44.7905 11.0509L48.8386 14.5422L47.6011 19.7641C47.5109 20.1322 47.5322 20.5189 47.6625 20.8749C47.7927 21.2309 48.026 21.5401 48.3325 21.7631C48.639 21.9861 49.005 22.1128 49.3838 22.1271C49.7626 22.1414 50.1371 22.0427 50.4596 21.8434L54.9999 19.0487L59.5402 21.8434C59.8626 22.0413 60.2365 22.1391 60.6145 22.1244C60.9925 22.1097 61.3576 21.9832 61.6637 21.7608C61.9697 21.5385 62.2029 21.2303 62.3338 20.8754C62.4646 20.5204 62.4872 20.1347 62.3986 19.7669L61.1611 14.545L65.2093 11.0537C65.4974 10.8066 65.7056 10.4794 65.8074 10.1136C65.9093 9.74792 65.9001 9.36019 65.7811 8.99968ZM59.1746 13.2841C59.0185 13.4186 58.9023 13.5935 58.8389 13.7896C58.7754 13.9857 58.767 14.1954 58.8146 14.3959L60.023 19.4997L55.5896 16.7734C55.4122 16.6643 55.2081 16.6065 54.9999 16.6065C54.7917 16.6065 54.5875 16.6643 54.4102 16.7734L49.9768 19.4997L51.1852 14.3997C51.2328 14.1992 51.2244 13.9894 51.1609 13.7933C51.0974 13.5972 50.9813 13.4224 50.8252 13.2878L46.8624 9.86593L52.0561 9.44687C52.2628 9.43026 52.4609 9.35686 52.6285 9.23476C52.7961 9.11267 52.9267 8.94663 53.0058 8.75499L54.9999 3.92687L56.9939 8.75499C57.0731 8.94663 57.2037 9.11267 57.3713 9.23476C57.5389 9.35686 57.7369 9.43026 57.9436 9.44687L63.1374 9.86593L59.1746 13.2841Z" fill="white"/>
<path d="M108.781 8.99968C108.665 8.64091 108.445 8.32469 108.149 8.09105C107.853 7.85741 107.494 7.71686 107.118 7.68718L101.813 7.25874L99.7652 2.3078C99.6213 1.95789 99.3767 1.65863 99.0624 1.44804C98.748 1.23744 98.3782 1.125 97.9999 1.125C97.6215 1.125 97.2517 1.23744 96.9374 1.44804C96.6231 1.65863 96.3785 1.95789 96.2346 2.3078L94.1889 7.25968L88.8836 7.68718C88.507 7.71824 88.1479 7.85994 87.8515 8.09448C87.5551 8.32901 87.3347 8.64591 87.2179 9.00535C87.1011 9.36479 87.0931 9.75074 87.195 10.1147C87.2969 10.4786 87.5041 10.8044 87.7905 11.0509L91.8386 14.5422L90.6011 19.7641C90.5109 20.1322 90.5322 20.5189 90.6625 20.8749C90.7927 21.2309 91.026 21.5401 91.3325 21.7631C91.639 21.9861 92.005 22.1128 92.3838 22.1271C92.7626 22.1414 93.1371 22.0427 93.4596 21.8434L97.9999 19.0487L102.54 21.8434C102.863 22.0413 103.236 22.1391 103.614 22.1244C103.992 22.1097 104.358 21.9832 104.664 21.7608C104.97 21.5385 105.203 21.2303 105.334 20.8754C105.465 20.5204 105.487 20.1347 105.399 19.7669L104.161 14.545L108.209 11.0537C108.497 10.8066 108.706 10.4794 108.807 10.1136C108.909 9.74792 108.9 9.36019 108.781 8.99968ZM102.175 13.2841C102.018 13.4186 101.902 13.5935 101.839 13.7896C101.775 13.9857 101.767 14.1954 101.815 14.3959L103.023 19.4997L98.5896 16.7734C98.4122 16.6643 98.2081 16.6065 97.9999 16.6065C97.7917 16.6065 97.5875 16.6643 97.4102 16.7734L92.9768 19.4997L94.1852 14.3997C94.2328 14.1992 94.2244 13.9894 94.1609 13.7933C94.0974 13.5972 93.9813 13.4224 93.8252 13.2878L89.8624 9.86593L95.0561 9.44687C95.2628 9.43026 95.4609 9.35686 95.6285 9.23476C95.7961 9.11267 95.9267 8.94663 96.0058 8.75499L97.9999 3.92687L99.9939 8.75499C100.073 8.94663 100.204 9.11267 100.371 9.23476C100.539 9.35686 100.737 9.43026 100.944 9.44687L106.137 9.86593L102.175 13.2841Z" fill="white"/>
<path d="M151.781 8.99968C151.665 8.64091 151.445 8.32469 151.149 8.09105C150.853 7.85741 150.494 7.71686 150.118 7.68718L144.813 7.25874L142.765 2.3078C142.621 1.95789 142.377 1.65863 142.062 1.44804C141.748 1.23744 141.378 1.125 141 1.125C140.622 1.125 140.252 1.23744 139.937 1.44804C139.623 1.65863 139.378 1.95789 139.235 2.3078L137.189 7.25968L131.884 7.68718C131.507 7.71824 131.148 7.85994 130.852 8.09448C130.555 8.32901 130.335 8.64591 130.218 9.00535C130.101 9.36479 130.093 9.75074 130.195 10.1147C130.297 10.4786 130.504 10.8044 130.791 11.0509L134.839 14.5422L133.601 19.7641C133.511 20.1322 133.532 20.5189 133.662 20.8749C133.793 21.2309 134.026 21.5401 134.332 21.7631C134.639 21.9861 135.005 22.1128 135.384 22.1271C135.763 22.1414 136.137 22.0427 136.46 21.8434L141 19.0487L145.54 21.8434C145.863 22.0413 146.236 22.1391 146.614 22.1244C146.992 22.1097 147.358 21.9832 147.664 21.7608C147.97 21.5385 148.203 21.2303 148.334 20.8754C148.465 20.5204 148.487 20.1347 148.399 19.7669L147.161 14.545L151.209 11.0537C151.497 10.8066 151.706 10.4794 151.807 10.1136C151.909 9.74792 151.9 9.36019 151.781 8.99968ZM145.175 13.2841C145.018 13.4186 144.902 13.5935 144.839 13.7896C144.775 13.9857 144.767 14.1954 144.815 14.3959L146.023 19.4997L141.59 16.7734C141.412 16.6643 141.208 16.6065 141 16.6065C140.792 16.6065 140.588 16.6643 140.41 16.7734L135.977 19.4997L137.185 14.3997C137.233 14.1992 137.224 13.9894 137.161 13.7933C137.097 13.5972 136.981 13.4224 136.825 13.2878L132.862 9.86593L138.056 9.44687C138.263 9.43026 138.461 9.35686 138.628 9.23476C138.796 9.11267 138.927 8.94663 139.006 8.75499L141 3.92687L142.994 8.75499C143.073 8.94663 143.204 9.11267 143.371 9.23476C143.539 9.35686 143.737 9.43026 143.944 9.44687L149.137 9.86593L145.175 13.2841Z" fill="white"/>
<path d="M194.781 8.99968C194.665 8.64091 194.445 8.32469 194.149 8.09105C193.853 7.85741 193.494 7.71686 193.118 7.68718L187.813 7.25874L185.765 2.3078C185.621 1.95789 185.377 1.65863 185.062 1.44804C184.748 1.23744 184.378 1.125 184 1.125C183.622 1.125 183.252 1.23744 182.937 1.44804C182.623 1.65863 182.378 1.95789 182.235 2.3078L180.189 7.25968L174.884 7.68718C174.507 7.71824 174.148 7.85994 173.852 8.09448C173.555 8.32901 173.335 8.64591 173.218 9.00535C173.101 9.36479 173.093 9.75074 173.195 10.1147C173.297 10.4786 173.504 10.8044 173.791 11.0509L177.839 14.5422L176.601 19.7641C176.511 20.1322 176.532 20.5189 176.662 20.8749C176.793 21.2309 177.026 21.5401 177.332 21.7631C177.639 21.9861 178.005 22.1128 178.384 22.1271C178.763 22.1414 179.137 22.0427 179.46 21.8434L184 19.0487L188.54 21.8434C188.863 22.0413 189.236 22.1391 189.614 22.1244C189.992 22.1097 190.358 21.9832 190.664 21.7608C190.97 21.5385 191.203 21.2303 191.334 20.8754C191.465 20.5204 191.487 20.1347 191.399 19.7669L190.161 14.545L194.209 11.0537C194.497 10.8066 194.706 10.4794 194.807 10.1136C194.909 9.74792 194.9 9.36019 194.781 8.99968ZM188.175 13.2841C188.018 13.4186 187.902 13.5935 187.839 13.7896C187.775 13.9857 187.767 14.1954 187.815 14.3959L189.023 19.4997L184.59 16.7734C184.412 16.6643 184.208 16.6065 184 16.6065C183.792 16.6065 183.588 16.6643 183.41 16.7734L178.977 19.4997L180.185 14.3997C180.233 14.1992 180.224 13.9894 180.161 13.7933C180.097 13.5972 179.981 13.4224 179.825 13.2878L175.862 9.86593L181.056 9.44687C181.263 9.43026 181.461 9.35686 181.628 9.23476C181.796 9.11267 181.927 8.94663 182.006 8.75499L184 3.92687L185.994 8.75499C186.073 8.94663 186.204 9.11267 186.371 9.23476C186.539 9.35686 186.737 9.43026 186.944 9.44687L192.137 9.86593L188.175 13.2841Z" fill="white"/>
</svg>
