<svg width="24" height="25" viewBox="0 0 24 25" fill="none" xmlns="http://www.w3.org/2000/svg">
<path d="M20.3644 13.1556C20.5519 12.9681 20.6572 12.7137 20.6572 12.4486C20.6572 12.1834 20.5519 11.9291 20.3644 11.7416L14.7074 6.08459C14.6152 5.98907 14.5048 5.91289 14.3828 5.86048C14.2608 5.80807 14.1296 5.78049 13.9968 5.77933C13.8641 5.77818 13.7324 5.80348 13.6095 5.85376C13.4866 5.90404 13.3749 5.9783 13.281 6.07219C13.1872 6.16608 13.1129 6.27773 13.0626 6.40063C13.0123 6.52353 12.987 6.65521 12.9882 6.78799C12.9893 6.92077 13.0169 7.05199 13.0693 7.17399C13.1217 7.29599 13.1979 7.40634 13.2934 7.49859L17.2434 11.4486L4.00044 11.4486C3.73522 11.4486 3.48087 11.5539 3.29333 11.7415C3.1058 11.929 3.00044 12.1834 3.00044 12.4486C3.00044 12.7138 3.1058 12.9682 3.29333 13.1557C3.48087 13.3432 3.73522 13.4486 4.00044 13.4486L17.2434 13.4486L13.2934 17.3986C13.1113 17.5872 13.0105 17.8398 13.0128 18.102C13.015 18.3642 13.1202 18.615 13.3056 18.8004C13.491 18.9858 13.7418 19.091 14.004 19.0933C14.2662 19.0955 14.5188 18.9947 14.7074 18.8126L20.3644 13.1556Z" fill="white"/>
</svg>
