<svg width="24" height="25" viewBox="0 0 24 25" fill="none" xmlns="http://www.w3.org/2000/svg">
<path d="M12 2C7.85953 2 4.5 5.02391 4.5 8.75C4.5 14.75 12 23 12 23C12 23 19.5 14.75 19.5 8.75C19.5 5.02391 16.1405 2 12 2ZM12 12.5C11.4067 12.5 10.8266 12.3241 10.3333 11.9944C9.83994 11.6648 9.45542 11.1962 9.22836 10.6481C9.0013 10.0999 8.94189 9.49667 9.05764 8.91473C9.1734 8.33279 9.45912 7.79824 9.87868 7.37868C10.2982 6.95912 10.8328 6.6734 11.4147 6.55764C11.9967 6.44189 12.5999 6.5013 13.1481 6.72836C13.6962 6.95542 14.1648 7.33994 14.4944 7.83329C14.8241 8.32664 15 8.90666 15 9.5C14.9991 10.2954 14.6828 11.0579 14.1204 11.6204C13.5579 12.1828 12.7954 12.4991 12 12.5Z" fill="white"/>
</svg>
