<svg width="24" height="25" viewBox="0 0 24 25" fill="none" xmlns="http://www.w3.org/2000/svg">
<path d="M19.23 15.7598L16.69 15.4698C16.3914 15.4347 16.0886 15.4678 15.8046 15.5665C15.5206 15.6652 15.2626 15.827 15.05 16.0398L13.21 17.8798C10.3714 16.4357 8.0641 14.1284 6.62004 11.2898L8.47004 9.43977C8.90004 9.00977 9.11004 8.40977 9.04004 7.79977L8.75004 5.27977C8.69356 4.79186 8.45951 4.34179 8.0925 4.01536C7.7255 3.68893 7.25121 3.50897 6.76004 3.50977H5.03004C3.90004 3.50977 2.96004 4.44977 3.03004 5.57977C3.56004 14.1198 10.39 20.9398 18.92 21.4698C20.05 21.5398 20.99 20.5998 20.99 19.4698V17.7398C21 16.7298 20.24 15.8798 19.23 15.7598Z" fill="white"/>
</svg>
