<svg width="25" height="24" viewBox="0 0 25 24" fill="none" xmlns="http://www.w3.org/2000/svg">
<path d="M3.60059 13.083C3.60059 13.006 3.60059 12.967 3.60259 12.935C3.61834 12.6927 3.7217 12.4645 3.89337 12.2928C4.06505 12.1211 4.29331 12.0178 4.53559 12.002C4.56859 12 4.60559 12 4.68359 12H20.5176C20.5946 12 20.6326 12 20.6656 12.002C20.9079 12.0178 21.1361 12.1211 21.3078 12.2928C21.4795 12.4645 21.5828 12.6927 21.5986 12.935C21.6006 12.967 21.6006 13.005 21.6006 13.083C21.6006 13.478 21.6006 13.676 21.5866 13.898C21.3776 17.185 18.5836 20.087 15.3066 20.418C15.0856 20.441 14.9566 20.446 14.6986 20.456C13.9996 20.4835 13.3001 20.4982 12.6006 20.5C11.9506 20.5 11.2366 20.483 10.5026 20.456C10.2446 20.446 10.1156 20.441 9.89559 20.419C6.61759 20.087 3.82359 17.185 3.61559 13.898C3.60059 13.676 3.60059 13.478 3.60059 13.083Z" stroke="white"/>
<path d="M6.60059 20L5.60059 22M18.6006 20L19.6006 22M2.60059 12H22.6006" stroke="white" stroke-linecap="round"/>
<path d="M4.36328 11.46C4.36328 11.6032 4.42017 11.7406 4.52144 11.8418C4.62271 11.9431 4.76006 12 4.90328 12C5.0465 12 5.18385 11.9431 5.28512 11.8418C5.38639 11.7406 5.44328 11.6032 5.44328 11.46H4.36328ZM7.3124 8.39424L6.80984 8.59224C6.83642 8.65945 6.87623 8.72063 6.92689 8.77217C6.97756 8.82371 7.03805 8.86455 7.10479 8.89228C7.17153 8.92001 7.24316 8.93406 7.31543 8.9336C7.3877 8.93314 7.45914 8.91818 7.52552 8.8896L7.3124 8.39424ZM11.6036 6.546L11.8174 7.0428C11.9463 6.98729 12.0485 6.8838 12.1024 6.75425C12.1563 6.62469 12.1576 6.47925 12.1062 6.34872L11.6036 6.546ZM5.44328 11.46V5.2572H4.36328V11.46H5.44328ZM6.62048 4.08C7.10216 4.08 7.53488 4.37304 7.71344 4.82016L8.7164 4.4184C8.54893 3.99959 8.25982 3.64128 7.88637 3.38834C7.51292 3.13539 7.07225 3.00013 6.6212 3L6.62048 4.08ZM5.44328 5.2572C5.44328 4.60704 5.97032 4.08 6.62048 4.08L6.6212 3C6.02255 3 5.44771 3.23781 5.0244 3.66112C4.60109 4.08443 4.36328 4.65855 4.36328 5.2572H5.44328ZM7.71344 4.82016L7.98704 5.50272L8.98928 5.10168L8.7164 4.4184L7.71344 4.82016ZM7.81424 8.19624C7.6332 7.73462 7.63681 7.22103 7.82432 6.762L6.82352 6.3552C6.53147 7.07133 6.52703 7.87241 6.80984 8.59224L7.81424 8.19624ZM11.3905 6.05064L7.09856 7.89816L7.52552 8.8896L11.8167 7.04208L11.3905 6.05064ZM10.1463 5.74896C10.5942 5.94048 10.9275 6.30264 11.1018 6.744L12.1062 6.34872C11.9689 5.99459 11.7625 5.67063 11.4989 5.39718C11.2354 5.12372 10.92 4.90553 10.5711 4.75536L10.1463 5.74896ZM7.82432 6.762C7.9935 6.33696 8.31413 5.99038 8.72432 5.78784L8.252 4.81728C7.60228 5.13595 7.09345 5.68376 6.82352 6.3552L7.82432 6.762ZM8.72432 5.78784C8.94451 5.6791 9.18565 5.61938 9.43114 5.61279C9.67662 5.60621 9.92062 5.65219 10.1463 5.74896L10.5711 4.75536C10.203 4.5979 9.80514 4.52256 9.40487 4.53313C9.0046 4.54369 8.61133 4.64062 8.252 4.81728L8.72432 5.78784Z" fill="white"/>
</svg>
