<svg width="25" height="24" viewBox="0 0 25 24" fill="none" xmlns="http://www.w3.org/2000/svg">
<path d="M5.90039 9.5C5.90039 9.5 3.32889 10.5 2.90039 14M19.9004 9.5C19.9004 9.5 22.4719 10.5 22.9004 14M9.90039 9.5C9.90039 9.5 12.3004 10.0835 12.9004 13C13.5004 10.0835 15.9004 9.5 15.9004 9.5M10.9004 17C10.9004 17 8.80039 17.375 7.90039 20M14.9004 17C14.9004 17 17.0004 17.375 17.9004 20" stroke="white" stroke-linecap="round"/>
<path d="M12.9004 18C14.2811 18 15.4004 16.8807 15.4004 15.5C15.4004 14.1193 14.2811 13 12.9004 13C11.5197 13 10.4004 14.1193 10.4004 15.5C10.4004 16.8807 11.5197 18 12.9004 18Z" stroke="white" stroke-linecap="round" stroke-linejoin="round"/>
<path d="M17.9004 10C19.5572 10 20.9004 8.65685 20.9004 7C20.9004 5.34315 19.5572 4 17.9004 4C16.2435 4 14.9004 5.34315 14.9004 7C14.9004 8.65685 16.2435 10 17.9004 10Z" stroke="white" stroke-linecap="round" stroke-linejoin="round"/>
<path d="M7.90039 10C9.55724 10 10.9004 8.65685 10.9004 7C10.9004 5.34315 9.55724 4 7.90039 4C6.24354 4 4.90039 5.34315 4.90039 7C4.90039 8.65685 6.24354 10 7.90039 10Z" stroke="white" stroke-linecap="round" stroke-linejoin="round"/>
</svg>
