<svg width="25" height="24" viewBox="0 0 25 24" fill="none" xmlns="http://www.w3.org/2000/svg">
<path d="M12.1006 20H4.10059V4.7619C4.10059 4.7619 5.6244 4 8.10059 4C10.5768 4 12.1006 4.7619 12.1006 4.7619V20ZM12.1006 20V12.381H12.2911C12.2911 12.381 13.6244 13.1429 16.1006 13.1429C18.5768 13.1429 19.9101 12.381 19.9101 12.381H20.1006V20H12.1006ZM4.10059 10.0952C4.10059 10.0952 5.6244 9.33333 8.10059 9.33333C10.5768 9.33333 12.1006 10.0952 12.1006 10.0952M6.00535 6.28571V7.80952M6.00535 11.2381V12.7619M17.053 13.104V10.2857C17.053 10.0331 16.9526 9.79089 16.774 9.61228C16.5954 9.43367 16.3532 9.33333 16.1006 9.33333C15.848 9.33333 15.6058 9.43367 15.4272 9.61228C15.2485 9.79089 15.1482 10.0331 15.1482 10.2857V10.4762" stroke="white" stroke-width="1.14286"/>
</svg>
