<svg width="25" height="24" viewBox="0 0 25 24" fill="none" xmlns="http://www.w3.org/2000/svg">
<path d="M22.3008 11V3.6C22.3008 3.44087 22.2376 3.28826 22.125 3.17574C22.0125 3.06321 21.8599 3 21.7008 3H2.90078C2.74165 3 2.58904 3.06321 2.47652 3.17574C2.364 3.28826 2.30078 3.44087 2.30078 3.6V11M22.3008 11H2.30078M22.3008 11L21.5108 13.584C21.3857 13.9936 21.1324 14.3523 20.7882 14.6072C20.444 14.8621 20.0271 14.9998 19.5988 15H18.3008M2.30078 11L3.09078 13.584C3.21585 13.9936 3.46912 14.3523 3.81332 14.6072C4.15752 14.8621 4.57447 14.9998 5.00278 15H6.30078M18.3008 7H19.3008M9.80078 14.5C9.80078 14.5 9.80078 21.5 6.30078 21.5M14.8008 14.5C14.8008 14.5 14.8008 21.5 18.3008 21.5M12.3008 14.5V21.5" stroke="white" stroke-linecap="round" stroke-linejoin="round"/>
</svg>
