<svg width="25" height="24" viewBox="0 0 25 24" fill="none" xmlns="http://www.w3.org/2000/svg">
<path d="M6.53415 22.2356V14.1028L3.76032 16.1724L3.21777 15.4609L12.2004 8.76172L16.1042 11.6568V9.65998H17.7974V12.9287L21.2 15.4609L20.6584 16.1724L17.8837 14.1028V22.2356H13.3061V17.5377H11.0946V22.2356H6.53415ZM7.43241 21.3374H10.1973V16.6395H14.2053V21.3374H16.9863V13.4417L12.2004 9.88993L7.43241 13.4417V21.3374ZM10.5763 14.1567H13.8244C13.8244 13.7351 13.6621 13.3881 13.3376 13.1156C13.0124 12.8431 12.6333 12.7069 12.2004 12.7069C11.7674 12.7069 11.3886 12.8425 11.0641 13.1138C10.7395 13.3851 10.5769 13.7333 10.5763 14.1567ZM10.1973 21.3374V16.6395H14.2053H10.1964L10.1973 21.3374Z" fill="white"/>
<path d="M7.55509 2.14689C7.60165 2.19334 7.6386 2.24851 7.6638 2.30926C7.68901 2.37001 7.70198 2.43513 7.70198 2.50089C7.70198 2.56666 7.68901 2.63178 7.6638 2.69253C7.6386 2.75327 7.60165 2.80845 7.55509 2.85489L5.90809 4.50089H10.7011C10.8337 4.50089 10.9609 4.55357 11.0546 4.64734C11.1484 4.74111 11.2011 4.86829 11.2011 5.00089C11.2011 5.1335 11.1484 5.26068 11.0546 5.35445C10.9609 5.44822 10.8337 5.50089 10.7011 5.50089H5.90809L7.55509 7.14689C7.64898 7.24078 7.70172 7.36812 7.70172 7.50089C7.70172 7.63367 7.64898 7.76101 7.55509 7.85489C7.4612 7.94878 7.33386 8.00152 7.20109 8.00152C7.06831 8.00152 6.94098 7.94878 6.84709 7.85489L4.34709 5.35489C4.30053 5.30845 4.26358 5.25327 4.23838 5.19253C4.21317 5.13178 4.2002 5.06666 4.2002 5.00089C4.2002 4.93513 4.21317 4.87001 4.23838 4.80926C4.26358 4.74852 4.30053 4.69334 4.34709 4.64689L6.84709 2.14689C6.89353 2.10033 6.94871 2.06339 7.00946 2.03818C7.0702 2.01297 7.13532 2 7.20109 2C7.26686 2 7.33198 2.01297 7.39272 2.03818C7.45347 2.06339 7.50864 2.10033 7.55509 2.14689ZM16.8471 2.14689C16.8935 2.10033 16.9487 2.06339 17.0095 2.03818C17.0702 2.01297 17.1353 2 17.2011 2C17.2669 2 17.332 2.01297 17.3927 2.03818C17.4535 2.06339 17.5086 2.10033 17.5551 2.14689L20.0551 4.64689C20.1017 4.69334 20.1386 4.74852 20.1638 4.80926C20.189 4.87001 20.202 4.93513 20.202 5.00089C20.202 5.06666 20.189 5.13178 20.1638 5.19253C20.1386 5.25327 20.1017 5.30845 20.0551 5.35489L17.5551 7.85489C17.4612 7.94878 17.3339 8.00152 17.2011 8.00152C17.0683 8.00152 16.941 7.94878 16.8471 7.85489C16.7532 7.76101 16.7005 7.63367 16.7005 7.50089C16.7005 7.36812 16.7532 7.24078 16.8471 7.14689L18.4941 5.50089H13.7011C13.5685 5.50089 13.4413 5.44822 13.3475 5.35445C13.2538 5.26068 13.2011 5.1335 13.2011 5.00089C13.2011 4.86829 13.2538 4.74111 13.3475 4.64734C13.4413 4.55357 13.5685 4.50089 13.7011 4.50089H18.4941L16.8471 2.85489C16.8005 2.80845 16.7636 2.75327 16.7384 2.69253C16.7132 2.63178 16.7002 2.56666 16.7002 2.50089C16.7002 2.43513 16.7132 2.37001 16.7384 2.30926C16.7636 2.24851 16.8005 2.19334 16.8471 2.14689Z" fill="white"/>
</svg>
