<svg width="25" height="24" viewBox="0 0 25 24" fill="none" xmlns="http://www.w3.org/2000/svg">
<path d="M5.8922 19V9.946L2.8042 12.25L2.2002 11.458L12.2002 4L16.5462 7.223V5H18.4312V8.639L22.2192 11.458L21.6162 12.25L18.5272 9.946V19H13.4312V13.77H10.9692V19H5.8922ZM6.8922 18H9.9702V12.77H14.4322V18H17.5282V9.21L12.2002 5.256L6.8922 9.21V18ZM10.3922 10.006H14.0082C14.0082 9.53667 13.8275 9.15033 13.4662 8.847C13.1042 8.54367 12.6822 8.392 12.2002 8.392C11.7182 8.392 11.2965 8.543 10.9352 8.845C10.5739 9.147 10.3929 9.53467 10.3922 10.006ZM9.9702 18V12.77H14.4322H9.9692L9.9702 18Z" fill="white"/>
</svg>
