<svg width="25" height="24" viewBox="0 0 25 24" fill="none" xmlns="http://www.w3.org/2000/svg">
<path d="M4.80178 11.625C4.24178 11.625 3.76845 11.4317 3.38178 11.045C2.99445 10.6583 2.80078 10.1853 2.80078 9.626C2.80078 9.06667 2.99411 8.59333 3.38078 8.206C3.76745 7.81867 4.24045 7.625 4.79978 7.625C5.35911 7.625 5.83245 7.81833 6.21978 8.205C6.60711 8.59167 6.80078 9.06467 6.80078 9.624C6.80078 10.1833 6.60745 10.6567 6.22078 11.044C5.83411 11.4313 5.36111 11.625 4.80178 11.625ZM9.30178 7.625C8.74178 7.625 8.26845 7.43167 7.88178 7.045C7.49445 6.65833 7.30078 6.18533 7.30078 5.626C7.30078 5.06667 7.49411 4.59333 7.88078 4.206C8.26745 3.81867 8.74045 3.625 9.29978 3.625C9.85911 3.625 10.3324 3.81833 10.7198 4.205C11.1071 4.59167 11.3008 5.06467 11.3008 5.624C11.3008 6.18333 11.1074 6.65667 10.7208 7.044C10.3341 7.43133 9.86111 7.625 9.30178 7.625ZM15.3018 7.625C14.7418 7.625 14.2684 7.43167 13.8818 7.045C13.4944 6.65833 13.3008 6.18533 13.3008 5.626C13.3008 5.06667 13.4941 4.59333 13.8808 4.206C14.2674 3.81867 14.7404 3.625 15.2998 3.625C15.8591 3.625 16.3324 3.81833 16.7198 4.205C17.1071 4.59167 17.3008 5.06467 17.3008 5.624C17.3008 6.18333 17.1074 6.65667 16.7208 7.044C16.3341 7.43133 15.8611 7.625 15.3018 7.625ZM19.8018 11.625C19.2418 11.625 18.7684 11.4317 18.3818 11.045C17.9944 10.6583 17.8008 10.1853 17.8008 9.626C17.8008 9.06667 17.9941 8.59333 18.3808 8.206C18.7674 7.81867 19.2404 7.625 19.7998 7.625C20.3591 7.625 20.8324 7.81833 21.2198 8.205C21.6071 8.59167 21.8008 9.06467 21.8008 9.624C21.8008 10.1833 21.6074 10.6567 21.2208 11.044C20.8341 11.4313 20.3611 11.625 19.8018 11.625ZM6.95078 21.625C6.32878 21.625 5.81511 21.387 5.40978 20.911C5.00378 20.4357 4.80078 19.8737 4.80078 19.225C4.80078 18.4097 5.08711 17.7123 5.65978 17.133C6.23178 16.553 6.79045 15.9657 7.33578 15.371C7.81911 14.8417 8.23911 14.276 8.59578 13.674C8.95178 13.072 9.36511 12.5043 9.83578 11.971C10.1638 11.6017 10.5351 11.285 10.9498 11.021C11.3644 10.757 11.8148 10.625 12.3008 10.625C12.8008 10.625 13.2641 10.7517 13.6908 11.005C14.1174 11.2597 14.4888 11.578 14.8048 11.96C15.2714 12.4933 15.6808 13.0617 16.0328 13.665C16.3848 14.269 16.7961 14.8377 17.2668 15.371C17.8114 15.9657 18.3698 16.553 18.9418 17.133C19.5144 17.7123 19.8008 18.4097 19.8008 19.225C19.8008 19.8737 19.5978 20.4357 19.1918 20.911C18.7864 21.387 18.2728 21.625 17.6508 21.625C16.7508 21.625 15.8591 21.55 14.9758 21.4C14.0924 21.25 13.2008 21.175 12.3008 21.175C11.4008 21.175 10.5091 21.25 9.62578 21.4C8.74245 21.55 7.85078 21.625 6.95078 21.625Z" fill="white"/>
</svg>
