<svg width="25" height="24" viewBox="0 0 25 24" fill="none" xmlns="http://www.w3.org/2000/svg">
<path d="M3.5 14L4.5 19M4.5 19L3.5 22M4.5 19H7.153C7.857 19 8.023 19.14 8.139 19.836L8.5 22M21.5 14L20.5 19M20.5 19L21.5 22M20.5 19H17.847C17.143 19 16.977 19.14 16.861 19.836L16.5 22M12.5 10V22M11.5 22H13.5M9.5 15H15.5M5.1 7.407C7.17 6.438 9.253 4.9 10.79 3.364C11.699 2.454 12.154 2 12.5 2C12.846 2 13.3 2.455 14.211 3.364C15.747 4.899 17.83 6.438 19.899 7.407C20.603 7.737 21.033 8.143 21.373 8.935C21.633 9.54 21.516 10 20.807 10H4.193C3.483 10 3.367 9.54 3.627 8.935C3.967 8.143 4.397 7.737 5.1 7.407Z" stroke="white" stroke-linecap="round" stroke-linejoin="round"/>
</svg>
