<svg width="25" height="24" viewBox="0 0 25 24" fill="none" xmlns="http://www.w3.org/2000/svg">
<path d="M12.9005 20.4221C12.4699 20.4221 12.1059 20.2734 11.8085 19.9761C11.5112 19.6787 11.3625 19.3147 11.3625 18.8841C11.3625 18.4534 11.5112 18.0891 11.8085 17.7911C12.1059 17.4931 12.4699 17.3444 12.9005 17.3451C13.3312 17.3457 13.6952 17.4944 13.9925 17.7911C14.2899 18.0877 14.4385 18.4517 14.4385 18.8831C14.4385 19.3144 14.2899 19.6787 13.9925 19.9761C13.6952 20.2734 13.3312 20.4221 12.9005 20.4221ZM7.25054 15.3491L6.22754 14.3151C7.09554 13.4471 8.09687 12.7671 9.23154 12.2751C10.3662 11.7831 11.5902 11.5374 12.9035 11.5381C14.2169 11.5387 15.4399 11.7854 16.5725 12.2781C17.7052 12.7707 18.7055 13.4534 19.5735 14.3261L18.5505 15.3491C17.8172 14.6157 16.9672 14.0407 16.0005 13.6241C15.0339 13.2074 14.0005 12.9991 12.9005 12.9991C11.8005 12.9991 10.7672 13.2074 9.80054 13.6241C8.83387 14.0407 7.98387 14.6157 7.25054 15.3491ZM3.00054 11.0991L1.97754 10.0761C3.37021 8.67607 4.99521 7.5694 6.85254 6.75607C8.70987 5.94274 10.7259 5.53707 12.9005 5.53907C15.0752 5.54107 17.0912 5.9474 18.9485 6.75807C20.8059 7.56874 22.4309 8.67507 23.8235 10.0771L22.8005 11.0991C21.5172 9.81574 20.0299 8.81174 18.3385 8.08707C16.6472 7.3624 14.8345 6.99974 12.9005 6.99907C10.9665 6.9984 9.15421 7.36107 7.46354 8.08707C5.77287 8.81307 4.28521 9.81707 3.00054 11.0991Z" fill="white"/>
</svg>
